<svg width="374" height="173" viewBox="0 0 374 173" fill="none" xmlns="http://www.w3.org/2000/svg">
<path d="M332.138 128.341H273.74V129.175H332.138V128.341Z" fill="#1D256E"/>
<path d="M290.425 120.832H289.591V128.549H290.425V120.832Z" fill="#FF7F2D"/>
<path d="M315.87 120.832H315.035V128.549H315.87V120.832Z" fill="#FF7F2D"/>
<path d="M234.53 87.4622H233.695V95.179H234.53V87.4622Z" fill="#FF7F2D"/>
<path d="M344.234 64.5201H285.836V65.3544H344.234V64.5201Z" fill="#1D256E"/>
<path d="M302.522 57.0118H301.687V64.7287H302.522V57.0118Z" fill="#FF7F2D"/>
<path d="M327.966 57.0118H327.132V64.7287H327.966V57.0118Z" fill="#FF7F2D"/>
<path d="M17.3667 158.303C22.5509 167.918 33.5538 172.045 33.5538 172.045C33.5538 172.045 36.1513 160.584 30.967 150.97C25.7828 141.355 14.78 137.228 14.78 137.228C14.78 137.228 12.1825 148.689 17.3667 158.303Z" fill="#FF7F2D"/>
<path d="M20.93 155.14C30.2897 160.771 33.8945 171.956 33.8945 171.956C33.8945 171.956 22.3241 174.011 12.9644 168.38C3.60472 162.749 0 151.564 0 151.564C0 151.564 11.5703 149.509 20.93 155.14Z" fill="#1D256E"/>
<path d="M250.798 94.9705H192.4V95.8047H250.798V94.9705Z" fill="#1D256E"/>
<path d="M209.085 87.4622H208.251V95.179H209.085V87.4622Z" fill="#FF7F2D"/>
<path d="M151.025 153.901H52.2553V153.19H150.315V118.727H60.5587L56.1984 109.643L56.8391 109.336L61.0058 118.016H151.025V153.901Z" fill="#1D256E"/>
<path d="M65.4009 171.31C69.5215 171.31 72.862 167.97 72.862 163.849C72.862 159.728 69.5215 156.388 65.4009 156.388C61.2803 156.388 57.9398 159.728 57.9398 163.849C57.9398 167.97 61.2803 171.31 65.4009 171.31Z" fill="#FF7F2D"/>
<path d="M138.946 171.31C143.066 171.31 146.407 167.97 146.407 163.849C146.407 159.728 143.066 156.388 138.946 156.388C134.825 156.388 131.485 159.728 131.485 163.849C131.485 167.97 134.825 171.31 138.946 171.31Z" fill="#FF7F2D"/>
<path d="M225.636 10.0089C228.187 10.0089 230.255 7.94106 230.255 5.3902C230.255 2.83933 228.187 0.771439 225.636 0.771439C223.085 0.771439 221.017 2.83933 221.017 5.3902C221.017 7.94106 223.085 10.0089 225.636 10.0089Z" fill="#FF7F2D"/>
<path d="M161.589 107.003H50.5713L26.5496 28.484H186.328L186.183 28.9459L161.589 107.003ZM51.0969 106.292H161.068L185.359 29.1945H27.5099L51.0969 106.292Z" fill="#FF7F2D"/>
<path d="M152.923 102.917H55.4121L34.313 33.2802H174.652L174.524 33.6903L152.923 102.917Z" fill="#C4C4C4"/>
<path d="M188.319 21.4692L187.632 21.2869L192.321 3.61365H219.596V4.32443H192.868L188.319 21.4692Z" fill="#1D256E"/>
<path d="M178.344 52.2883H34.3123V52.9988H178.344V52.2883Z" fill="#1D256E"/>
<path d="M170.095 78.4672H42.3214V79.1778H170.095V78.4672Z" fill="#1D256E"/>
<path d="M106.792 28.8392H106.081V106.647H106.792V28.8392Z" fill="#1D256E"/>
<path d="M138.606 28.8169L133.505 106.623L134.214 106.67L139.315 28.8634L138.606 28.8169Z" fill="#1D256E"/>
<path d="M74.2824 28.8161L73.5732 28.8623L78.6444 106.671L79.3536 106.624L74.2824 28.8161Z" fill="#1D256E"/>
<path d="M373.747 171.761H0V172.595H373.747V171.761Z" fill="#1D256E"/>
<path d="M83.5293 8.20779H25.1313V9.04205H83.5293V8.20779Z" fill="#1D256E"/>
<path d="M41.8165 0.699493H40.9822V8.41637H41.8165V0.699493Z" fill="#FF7F2D"/>
<path d="M67.2613 0.699493H66.427V8.41637H67.2613V0.699493Z" fill="#FF7F2D"/>
</svg>
