<svg width="300" height="250" viewBox="0 0 300 250" fill="none" xmlns="http://www.w3.org/2000/svg">
<g clip-path="url(#clip0)">
<path d="M13.9157 238.224C18.0697 245.927 26.8861 249.235 26.8861 249.235C26.8861 249.235 28.9674 240.051 24.8134 232.347C20.6593 224.644 11.8429 221.337 11.8429 221.337C11.8429 221.337 9.76162 230.52 13.9157 238.224Z" fill="#FF7F2D"/>
<path d="M16.7709 235.689C24.2707 240.201 27.159 249.164 27.159 249.164C27.159 249.164 17.8879 250.81 10.3882 246.298C2.88842 241.786 3.05176e-05 232.824 3.05176e-05 232.824C3.05176e-05 232.824 9.27114 231.177 16.7709 235.689Z" fill="#6C63FF"/>
<path d="M184.916 12.0017H138.123V12.6702H184.916V12.0017Z" fill="#F2F2F2"/>
<path d="M172.215 12.5031H171.547V18.6865H172.215V12.5031Z" fill="#F2F2F2"/>
<path d="M151.827 12.5031H151.158V18.6865H151.827V12.5031Z" fill="#F2F2F2"/>
<path d="M208.647 44.0885H161.854V44.757H208.647V44.0885Z" fill="#F2F2F2"/>
<path d="M175.223 38.0722H174.555V44.2556H175.223V38.0722Z" fill="#F2F2F2"/>
<path d="M195.612 38.0722H194.943V44.2556H195.612V38.0722Z" fill="#F2F2F2"/>
<path d="M270.815 59.1292H224.022V59.7977H270.815V59.1292Z" fill="#F2F2F2"/>
<path d="M237.392 53.1129H236.723V59.2963H237.392V53.1129Z" fill="#F2F2F2"/>
<path d="M257.78 53.1129H257.112V59.2963H257.78V53.1129Z" fill="#F2F2F2"/>
<path d="M266.136 214.215H219.343V214.884H266.136V214.215Z" fill="#F2F2F2"/>
<path d="M232.712 208.199H232.044V214.382H232.712V208.199Z" fill="#F2F2F2"/>
<path d="M253.101 208.199H252.432V214.382H253.101V208.199Z" fill="#F2F2F2"/>
<path d="M186.253 106.925H139.46V107.594H186.253V106.925Z" fill="#F2F2F2"/>
<path d="M152.83 100.909H152.161V107.092H152.83V100.909Z" fill="#F2F2F2"/>
<path d="M173.218 100.909H172.55V107.092H173.218V100.909Z" fill="#F2F2F2"/>
<path d="M200.96 187.476H154.167V188.145H200.96V187.476Z" fill="#F2F2F2"/>
<path d="M167.536 181.46H166.868V187.643H167.536V181.46Z" fill="#F2F2F2"/>
<path d="M187.924 181.46H187.256V187.643H187.924V181.46Z" fill="#F2F2F2"/>
<path d="M275.829 163.077H229.036V163.745H275.829V163.077Z" fill="#F2F2F2"/>
<path d="M242.405 157.061H241.737V163.244H242.405V157.061Z" fill="#F2F2F2"/>
<path d="M262.794 157.061H262.125V163.244H262.794V157.061Z" fill="#F2F2F2"/>
<path d="M121.014 234.696H41.8713V234.127H120.444V206.512H48.5246L45.0308 199.234L45.5442 198.987L48.8829 205.943H121.014V234.696Z" fill="#C4C4C4"/>
<path d="M52.4046 248.646C55.7064 248.646 58.383 245.969 58.383 242.667C58.383 239.366 55.7064 236.689 52.4046 236.689C49.1028 236.689 46.4262 239.366 46.4262 242.667C46.4262 245.969 49.1028 248.646 52.4046 248.646Z" fill="#FF7F2D"/>
<path d="M111.335 248.646C114.636 248.646 117.313 245.969 117.313 242.667C117.313 239.366 114.636 236.689 111.335 236.689C108.033 236.689 105.356 239.366 105.356 242.667C105.356 245.969 108.033 248.646 111.335 248.646Z" fill="#FF7F2D"/>
<path d="M180.798 119.398C182.842 119.398 184.499 117.741 184.499 115.697C184.499 113.653 182.842 111.996 180.798 111.996C178.754 111.996 177.097 113.653 177.097 115.697C177.097 117.741 178.754 119.398 180.798 119.398Z" fill="#6C63FF"/>
<path d="M129.479 197.118H40.5219L21.2737 134.202H149.301L149.185 134.572L129.479 197.118ZM40.9431 196.548H129.061L148.525 134.771H22.0433L40.9431 196.548Z" fill="#FF7F2D"/>
<path d="M122.535 193.844H44.4008L27.4944 138.045H139.946L139.843 138.374L122.535 193.844Z" fill="#C4C4C4"/>
<path d="M150.896 128.581L150.346 128.435L154.103 114.274H175.959V114.843H154.541L150.896 128.581Z" fill="#C4C4C4"/>
<path d="M142.904 153.276H27.4939V153.845H142.904V153.276Z" fill="#1D256E"/>
<path d="M136.294 174.253H33.9114V174.822H136.294V174.253Z" fill="#1D256E"/>
<path d="M85.5706 134.487H85.0012V196.833H85.5706V134.487Z" fill="#1D256E"/>
<path d="M111.062 134.469L106.975 196.813L107.543 196.851L111.631 134.506L111.062 134.469Z" fill="#1D256E"/>
<path d="M59.5212 134.468L58.953 134.505L63.0164 196.851L63.5847 196.814L59.5212 134.468Z" fill="#1D256E"/>
<path d="M299.477 249.007H3.05176e-05V249.675H299.477V249.007Z" fill="white"/>
<path d="M199.009 20.6813C199.009 20.6813 203.895 34.5876 200.888 36.7271C197.881 38.8665 211.036 56.3386 211.036 56.3386L226.821 52.0597L218.177 37.4402C218.177 37.4402 217.049 22.8207 217.049 20.6813C217.049 18.5418 199.009 20.6813 199.009 20.6813Z" fill="#A0616A"/>
<path opacity="0.1" d="M199.009 20.6813C199.009 20.6813 203.895 34.5876 200.888 36.7271C197.881 38.8665 211.036 56.3386 211.036 56.3386L226.821 52.0597L218.177 37.4402C218.177 37.4402 217.049 22.8207 217.049 20.6813C217.049 18.5418 199.009 20.6813 199.009 20.6813Z" fill="black"/>
<path d="M190.807 119.809C190.807 119.809 189.381 137.637 190.807 146.908C192.234 156.179 194.373 181.853 194.373 181.853C194.373 181.853 194.373 230.347 202.218 231.06C210.062 231.773 215.767 232.486 216.481 229.633C217.194 226.781 212.915 225.355 215.054 223.928C217.194 222.502 217.907 217.51 215.054 211.805C212.202 206.1 215.054 148.335 215.054 148.335L228.604 184.705C228.604 184.705 230.03 214.657 231.457 218.936C232.883 223.215 230.03 231.06 235.022 231.773C240.014 232.486 245.72 228.207 248.572 226.781C251.425 225.355 244.293 225.355 245.72 224.641C247.146 223.928 251.425 221.789 249.999 221.076C248.572 220.362 247.146 186.131 247.146 186.131C247.146 186.131 243.224 113.034 238.232 110.181C233.24 107.329 230.03 112.242 230.03 112.242L190.807 119.809Z" fill="#C4C4C4"/>
<path d="M203.644 228.207V233.912C203.644 233.912 197.226 249.421 203.644 249.421C210.062 249.421 215.054 251.028 215.054 248.888V229.633L203.644 228.207Z" fill="#2F2E41"/>
<path d="M245.72 228.197V233.902C245.72 233.902 252.138 249.411 245.72 249.411C239.301 249.411 234.309 251.018 234.309 248.878V229.623L245.72 228.197Z" fill="#2F2E41"/>
<path d="M208.993 31.0219C216.082 31.0219 221.829 25.2747 221.829 18.1853C221.829 11.0958 216.082 5.3486 208.993 5.3486C201.903 5.3486 196.156 11.0958 196.156 18.1853C196.156 25.2747 201.903 31.0219 208.993 31.0219Z" fill="#A0616A"/>
<path d="M205.07 42.0757C205.07 42.0757 208.636 52.7729 214.341 50.6335L220.046 48.494L230.03 116.956C230.03 116.956 222.186 128.366 210.775 121.235C199.365 114.104 205.07 42.0757 205.07 42.0757Z" fill="#1D256E"/>
<path d="M215.054 39.9363L218.263 33.1614C218.263 33.1614 237.162 42.0757 240.014 44.9283C242.867 47.7809 242.867 52.0598 242.867 52.0598L237.875 69.8884C237.875 69.8884 239.301 109.112 239.301 110.538C239.301 111.964 244.293 119.809 240.728 116.956C237.162 114.104 236.449 111.251 233.596 115.53C230.744 119.809 224.325 124.801 224.325 124.801L215.054 39.9363Z" fill="#FF7F2D"/>
<path d="M240.014 91.2828L237.875 111.251C237.875 111.251 225.038 122.661 227.891 123.374C230.744 124.088 232.17 121.235 232.17 121.235C232.17 121.235 237.162 126.227 240.014 123.374C242.867 120.522 249.999 93.4223 249.999 93.4223L240.014 91.2828Z" fill="#A0616A"/>
<path d="M209.266 0.0434078C206.42 -0.0583241 203.375 -0.108647 200.976 1.42488C199.872 2.19449 198.903 3.14235 198.11 4.22964C195.774 7.18379 193.754 10.9008 194.622 14.5661L195.631 14.1729C195.631 15.1512 195.413 16.1174 194.994 17.0014C195.136 16.5886 195.611 17.2559 195.484 17.6735L194.373 21.3169C196.199 20.6476 198.47 22.0027 198.748 23.9272C198.875 19.6953 199.314 14.8427 202.747 12.3648C204.478 11.1152 206.669 10.7337 208.777 10.395C210.722 10.0825 212.76 9.78447 214.623 10.4247C216.486 11.0649 218.072 12.9699 217.65 14.8937C218.508 14.5979 219.469 15.1965 219.894 15.9996C220.318 16.8027 220.34 17.7502 220.353 18.6585C221.269 19.3055 222.31 18.0207 222.684 16.9635C223.559 14.482 224.338 11.8405 223.866 9.25165C223.394 6.66278 221.285 4.18871 218.653 4.17993C218.973 3.8291 219.143 3.36777 219.128 2.89354L216.959 2.71028C217.51 2.63231 218.016 2.36533 218.392 1.95505C217.521 2.91329 210.674 0.0937472 209.266 0.0434078Z" fill="#2F2E41"/>
<path d="M208.636 37.7968C208.636 37.7968 202.831 32.1078 200.741 32.4563C198.652 32.8048 195.799 37.7968 195.799 37.7968C195.799 37.7968 178.684 43.502 179.397 49.2072C180.11 54.9123 187.955 82.7251 187.955 82.7251C187.955 82.7251 194.373 116.243 188.668 119.809C182.963 123.374 215.767 132.645 216.481 128.367C217.194 124.088 218.62 81.2988 216.481 74.8805C214.341 68.4621 208.636 37.7968 208.636 37.7968Z" fill="#FF7F2D"/>
<path d="M233.596 49.2072H242.414C242.414 49.2072 248.572 76.3068 249.285 79.1593C249.999 82.0119 251.425 95.5617 250.712 95.5617C249.999 95.5617 235.736 92.7091 235.736 94.8486L233.596 49.2072Z" fill="#FF7F2D"/>
<path d="M233.298 116.315H199.54C196.245 101.16 195.97 86.5185 199.54 72.5295H233.298C227.85 86.2669 227.509 100.808 233.298 116.315Z" fill="#F2F2F2"/>
<path d="M185.815 97.7012L195.799 101.98C195.799 101.98 215.054 104.833 215.054 96.988C215.054 89.1434 195.799 93.4223 195.799 93.4223L189.381 91.37L185.815 97.7012Z" fill="#A0616A"/>
<path d="M187.955 44.9283L179.397 47.0677L172.979 84.8645C172.979 84.8645 170.839 94.8486 174.405 95.5617C177.971 96.2749 187.955 101.98 187.955 101.98C187.955 101.98 189.381 91.2828 192.234 91.2828L185.102 85.5777L189.381 60.6175L187.955 44.9283Z" fill="#FF7F2D"/>
<path d="M66.9306 117.955H20.1373V118.623H66.9306V117.955Z" fill="#F2F2F2"/>
<path d="M33.5068 111.939H32.8383V118.122H33.5068V111.939Z" fill="#F2F2F2"/>
<path d="M53.8953 111.939H53.2268V118.122H53.8953V111.939Z" fill="#F2F2F2"/>
<path d="M83.3082 19.0207H36.515V19.6892H83.3082V19.0207Z" fill="#F2F2F2"/>
<path d="M70.6072 19.5221H69.9387V25.7055H70.6072V19.5221Z" fill="#F2F2F2"/>
<path d="M50.2187 19.5221H49.5502V25.7055H50.2187V19.5221Z" fill="#F2F2F2"/>
<path d="M130.436 84.8655H83.6424V85.5339H130.436V84.8655Z" fill="#F2F2F2"/>
<path d="M117.735 85.3668H117.066V91.5502H117.735V85.3668Z" fill="#F2F2F2"/>
<path d="M97.3462 85.3668H96.6777V91.5502H97.3462V85.3668Z" fill="#F2F2F2"/>
<path d="M50.8872 84.5312H4.09393V85.1997H50.8872V84.5312Z" fill="#F2F2F2"/>
<path d="M38.1861 85.0326H37.5177V91.216H38.1861V85.0326Z" fill="#F2F2F2"/>
<path d="M17.7977 85.0326H17.1292V91.216H17.7977V85.0326Z" fill="#F2F2F2"/>
<path d="M107.039 51.1075H60.2458V51.776H107.039V51.1075Z" fill="#F2F2F2"/>
<path d="M73.6153 45.0912H72.9468V51.2746H73.6153V45.0912Z" fill="#F2F2F2"/>
<path d="M94.0038 45.0912H93.3353V51.2746H94.0038V45.0912Z" fill="#F2F2F2"/>
</g>
<defs>
<clipPath id="clip0">
<rect width="299.477" height="250" fill="white"/>
</clipPath>
</defs>
</svg>
