<svg width="25" height="25" viewBox="0 0 25 25" fill="none" xmlns="http://www.w3.org/2000/svg">
<path d="M0 25C0 22.4741 1.00421 20.0517 2.79172 18.2656C4.57923 16.4796 7.00361 15.4762 9.53153 15.4762C12.0594 15.4762 14.4838 16.4796 16.2713 18.2656C18.0588 20.0517 19.0631 22.4741 19.0631 25H0ZM9.53153 14.2857C5.5819 14.2857 2.38288 11.0893 2.38288 7.14286C2.38288 3.19643 5.5819 0 9.53153 0C13.4812 0 16.6802 3.19643 16.6802 7.14286C16.6802 11.0893 13.4812 14.2857 9.53153 14.2857ZM18.3041 16.944C20.1266 17.4121 21.7548 18.4427 22.9571 19.8891C24.1593 21.3355 24.8742 23.124 25 25H21.4459C21.4459 21.8929 20.2545 19.0643 18.3041 16.944ZM15.8938 14.2345C16.8922 13.3422 17.6907 12.2492 18.2369 11.0271C18.783 9.80495 19.0646 8.48129 19.0631 7.14286C19.0656 5.51603 18.6491 3.91592 17.8537 2.49643C19.2032 2.76737 20.4171 3.49687 21.2892 4.56095C22.1613 5.62502 22.6376 6.95801 22.6374 8.33333C22.6377 9.18151 22.4566 10.0199 22.1061 10.7925C21.7557 11.565 21.244 12.2537 20.6054 12.8125C19.9669 13.3714 19.2161 13.7873 18.4035 14.0326C17.5909 14.2778 16.7352 14.3467 15.8938 14.2345V14.2345Z" fill="#A9A9FC"/>
<path d="M0 25C0 22.4741 1.00421 20.0517 2.79172 18.2656C4.57923 16.4796 7.00361 15.4762 9.53153 15.4762C12.0594 15.4762 14.4838 16.4796 16.2713 18.2656C18.0588 20.0517 19.0631 22.4741 19.0631 25H0ZM18.3041 16.944C20.1266 17.4121 21.7548 18.4427 22.9571 19.8891C24.1593 21.3355 24.8742 23.124 25 25H21.4459C21.4459 21.8928 20.2545 19.0643 18.3041 16.944Z" fill="#817FFD"/>
</svg>
