<svg width="25" height="25" viewBox="0 0 25 25" fill="none" xmlns="http://www.w3.org/2000/svg">
<path d="M12.5 0C19.4037 0 25 5.59625 25 12.5C25 19.4037 19.4037 25 12.5 25C5.59625 25 0 19.4037 0 12.5H2.5C2.5 18.0225 6.9775 22.5 12.5 22.5C18.0225 22.5 22.5 18.0225 22.5 12.5C22.5 6.9775 18.0225 2.5 12.5 2.5C9.0625 2.5 6.03 4.23375 4.23125 6.875H7.5V9.375H0V1.875H2.5V5C4.78 1.9625 8.41125 0 12.5 0ZM13.75 6.25V11.9813L17.8038 16.035L16.035 17.8038L11.25 13.0163V6.25H13.75Z" fill="#FEB69C"/>
<path d="M12.5 0C19.4037 0 25 5.59625 25 12.5C25 19.4037 19.4037 25 12.5 25C5.59625 25 0 19.4037 0 12.5H2.5C2.5 18.0225 6.9775 22.5 12.5 22.5C18.0225 22.5 22.5 18.0225 22.5 12.5C22.5 6.9775 18.0225 2.5 12.5 2.5C9.0625 2.5 6.03 4.23375 4.23125 6.875H7.5V9.375H0V1.875H2.5V5C4.78 1.9625 8.41125 0 12.5 0Z" fill="#FE976C"/>
</svg>
