<svg width="77" height="65" viewBox="0 0 77 65" fill="none" xmlns="http://www.w3.org/2000/svg">
<path d="M55.6728 11.9173L55.7869 11.9475L55.8172 11.8335L58.4979 1.72946H74.296H74.4141V1.61143V1.1889V1.07087H74.296H58.082H57.9912L57.9679 1.15864L55.1806 11.6646L55.1503 11.7786L55.2644 11.8089L55.6728 11.9173Z" fill="#C4C4C4" stroke="#F2F2F2" stroke-width="0.236064"/>
<path d="M49.9334 59.3016H50.0515V59.1836V45.6524V45.5344H49.9334H16.0633L14.5243 42.3281L14.4732 42.2217L14.3668 42.2728L14.1253 42.3887L14.0188 42.4398L14.0699 42.5462L15.7141 45.9715L15.7462 46.0385H15.8205H49.5474V58.7977H12.6895H12.5714V58.9157V59.1836V59.3016H12.6895H49.9334Z" fill="white" stroke="#F2F2F2" stroke-width="0.236064"/>
<path d="M74.9116 2.37781C75.5682 2.37781 76.1005 1.84552 76.1005 1.1889C76.1005 0.53229 75.5682 0 74.9116 0C74.2549 0 73.7227 0.53229 73.7227 1.1889C73.7227 1.84552 74.2549 2.37781 74.9116 2.37781Z" fill="#FF7F2D"/>
<path d="M43.7174 65C45.3236 65 46.6256 63.698 46.6256 62.0918C46.6256 60.4856 45.3236 59.1836 43.7174 59.1836C42.1113 59.1836 40.8092 60.4856 40.8092 62.0918C40.8092 63.698 42.1113 65 43.7174 65Z" fill="#FF7F2D"/>
<path d="M19.513 65C21.1192 65 22.4212 63.698 22.4212 62.0918C22.4212 60.4856 21.1192 59.1836 19.513 59.1836C17.9068 59.1836 16.6048 60.4856 16.6048 62.0918C16.6048 63.698 17.9068 65 19.513 65Z" fill="#FF7F2D"/>
<path d="M48.1279 39.3859H13.9118L6.50818 14.9507H55.7524L55.7076 15.0946L48.1279 39.3859Z" fill="#C4C4C4"/>
<path d="M51.9205 42.3158H52.007L52.0331 42.2332L61.3066 12.7998L61.3067 12.7997L61.3615 12.6255L61.4098 12.4721H61.2489H1H0.840458L0.887132 12.6246L9.94517 42.2323L9.97072 42.3158H10.058H51.9205ZM60.7227 12.9761L51.6374 41.8118H10.3436L1.52168 12.9761H60.7227Z" fill="#F2F2F2" stroke="#F2F2F2" stroke-width="0.236064"/>
</svg>
